# xmcd
#
# Track frame offsets:
#	150
#	14812
#	29802
#	48109
#	65350
#	80265
#
# Disc length: 1362 seconds
#
# Revision: 0
# Processed by: cddbd v1.5.1PL0 Copyright (c) Steve Scherf et al.
# Submitted via: dBpowerAMP V4.0
#
DISCID=49055006
DTITLE=Jiminelson - Turbo
DYEAR=1900
DGENRE=Blues
TTITLE0=01 Corte De Mangas
TTITLE1=02 Estable Dentro De Mi Gravedad
TTITLE2=03 Chocolate Sexual
TTITLE3=04 Hablame Sucio
TTITLE4=05 Jiminelson Blues
TTITLE5=06 Pero Pruebalo
EXTD=
EXTT0=
EXTT1=
EXTT2=
EXTT3=
EXTT4=
EXTT5=
PLAYORDER=
